<?xml version="1.0" encoding="utf-8"?>
<!-- Generator: Adobe Illustrator 24.2.3, SVG Export Plug-In . SVG Version: 6.00 Build 0)  -->
<svg version="1.1" id="Capa_1" xmlns="http://www.w3.org/2000/svg" xmlns:xlink="http://www.w3.org/1999/xlink" x="1000px" y="1000px"
	 viewBox="0 0 273.7 124.45" style="enable-background:new 0 0 273.7 124.45;" xml:space="preserve">
<style type="text/css">
	.st0{fill:#691649;}
	.st1{fill:#79797A;}
</style>
<g>
	<g>
		<path class="st0" d="M112.89,35.8c0,3.11-2.29,5.17-5.84,5.17c-2.87,0-4.84-1.34-5.94-2.6l1.51-2.28c1.31,1.43,2.9,2.21,4.48,2.21
			c1.56,0,2.63-0.75,2.63-2.21c0-1.31-0.88-1.75-2.31-2.33l-2.63-1.04c-1.83-0.73-3.04-2.01-3.04-4.05c0-2.91,2.29-4.93,5.82-4.93
			c2.38,0,4.11,1,5.11,2.01l-1.51,2.26c-1.07-0.97-2.36-1.67-3.8-1.67c-1.39,0-2.48,0.68-2.48,1.92c0,1.21,1.05,1.67,1.92,2.04
			l2.8,1.14C111.97,32.4,112.89,33.71,112.89,35.8z"/>
		<path class="st0" d="M121.63,38.57c1.58,0,2.99-0.7,3.55-1.19l1.22,1.67c-0.66,0.68-2.43,1.89-5.31,1.89
			c-3.55,0-6.18-2.16-6.18-5.95c0-3.76,2.75-6.29,6.11-6.29c3.63,0,5.82,2.38,5.82,5.51c0,0.61-0.05,1.58-0.05,1.58h-8.66
			C118.41,37.67,119.85,38.57,121.63,38.57z M118.07,33.79h5.65c-0.05-1.29-0.54-2.77-2.73-2.77
			C119.14,31.02,118.17,32.31,118.07,33.79z"/>
		<path class="st0" d="M138.73,37.09l0.88,2.28c-0.24,0.22-1.46,1.58-4.6,1.58c-3.21,0-6.18-2.21-6.18-6.04
			c0-3.86,3.07-6.19,6.23-6.19c2.97,0,4.14,1.19,4.45,1.51l-0.85,2.33c-0.36-0.34-1.41-1.24-3.24-1.24c-1.85,0-3.33,1.29-3.33,3.45
			s1.48,3.57,3.5,3.57C137.61,38.33,138.73,37.09,138.73,37.09z"/>
		<path class="st0" d="M145.13,28.93l-0.05,1.89h0.07c0.46-1.26,1.63-2.11,2.9-2.11c0.8,0,1.24,0.22,1.24,0.22l-0.22,2.69h-0.15
			c-0.34-0.1-0.88-0.15-1.29-0.15c-0.92,0-1.63,0.39-2.07,1.14c-0.29,0.58-0.44,1.38-0.44,2.28v5.78h-3.09V28.93H145.13z"/>
		<path class="st0" d="M157.28,38.57c1.58,0,2.99-0.7,3.55-1.19l1.22,1.67c-0.66,0.68-2.43,1.89-5.31,1.89
			c-3.55,0-6.18-2.16-6.18-5.95c0-3.76,2.75-6.29,6.11-6.29c3.63,0,5.82,2.38,5.82,5.51c0,0.61-0.05,1.58-0.05,1.58h-8.66
			C154.07,37.67,155.5,38.57,157.28,38.57z M153.73,33.79h5.65c-0.05-1.29-0.54-2.77-2.73-2.77
			C154.8,31.02,153.82,32.31,153.73,33.79z"/>
		<path class="st0" d="M170.22,38.35c0.63,0,1.12-0.19,1.12-0.19l0.17,2.4c-0.15,0.05-1.07,0.39-2.38,0.39
			c-2.41,0-3.41-1.09-3.41-4.15v-5.44h-1.75v-2.4h1.75v-3.35h3.09v3.35h2.73v2.4h-2.73v4.76C168.81,37.91,169.13,38.35,170.22,38.35
			z"/>
		<path class="st0" d="M177.18,40.95c-2.29,0-4.14-1.24-4.14-3.69c0-2.45,2.41-3.4,4.84-3.57l2.82-0.19v-0.32
			c0-1.51-1-2.21-2.63-2.21c-1.56,0-2.85,0.58-3.36,0.97l-0.95-1.99c0.9-0.53,2.56-1.24,4.6-1.24c2.09,0,3.29,0.53,4.16,1.36
			c0.85,0.83,1.29,1.89,1.29,3.88v6.72h-2.99l-0.05-1.36C180.3,40.17,178.94,40.95,177.18,40.95z M176.16,37.16
			c0,1,0.75,1.67,2.04,1.67c1.22,0,2.12-0.7,2.53-1.29v-2.16l-2.12,0.12C176.97,35.61,176.16,36.17,176.16,37.16z"/>
		<path class="st0" d="M190.23,28.93l-0.05,1.89h0.07c0.46-1.26,1.63-2.11,2.9-2.11c0.8,0,1.24,0.22,1.24,0.22l-0.22,2.69h-0.15
			c-0.34-0.1-0.88-0.15-1.29-0.15c-0.92,0-1.63,0.39-2.07,1.14c-0.29,0.58-0.44,1.38-0.44,2.28v5.78h-3.09V28.93H190.23z"/>
		<path class="st0" d="M201.45,23.93l-2.6,3.52h-2.26l2.04-3.52H201.45z M199.77,28.93v11.75h-3.11V28.93H199.77z"/>
		<path class="st0" d="M206.61,40.95c-2.29,0-4.14-1.24-4.14-3.69c0-2.45,2.41-3.4,4.84-3.57l2.82-0.19v-0.32
			c0-1.51-1-2.21-2.63-2.21c-1.56,0-2.85,0.58-3.36,0.97l-0.95-1.99c0.9-0.53,2.56-1.24,4.6-1.24c2.09,0,3.29,0.53,4.16,1.36
			c0.85,0.83,1.29,1.89,1.29,3.88v6.72h-2.99l-0.05-1.36C209.72,40.17,208.36,40.95,206.61,40.95z M205.58,37.16
			c0,1,0.75,1.67,2.04,1.67c1.22,0,2.12-0.7,2.53-1.29v-2.16l-2.12,0.12C206.39,35.61,205.58,36.17,205.58,37.16z"/>
		<path class="st0" d="M110.72,64.27c-0.95,1.5-2.41,2.11-4.04,2.11c-3.46,0-5.57-2.67-5.57-6.17c0-3.33,2.21-6.07,5.79-6.07
			c1.58,0,2.92,0.58,3.75,1.85h0.05c-0.02-0.53-0.02-1.17-0.02-1.99v-4.64h3.09v16.75h-2.94l-0.02-1.84H110.72z M110.75,60.21
			c0-1.97-1.29-3.69-3.29-3.69c-2.02,0-3.19,1.72-3.19,3.69c0,2.04,1.27,3.64,3.29,3.64C109.43,63.86,110.75,62.42,110.75,60.21z"/>
		<path class="st0" d="M123.33,64c1.58,0,2.99-0.7,3.55-1.19l1.22,1.67c-0.66,0.68-2.43,1.89-5.31,1.89c-3.55,0-6.18-2.16-6.18-5.95
			c0-3.76,2.75-6.29,6.11-6.29c3.63,0,5.82,2.38,5.82,5.51c0,0.61-0.05,1.58-0.05,1.58h-8.66C120.12,63.1,121.55,64,123.33,64z
			 M119.78,59.22h5.65c-0.05-1.29-0.54-2.77-2.73-2.77C120.85,56.45,119.87,57.74,119.78,59.22z"/>
		<path class="st0" d="M146.84,49.36v2.65h-6.74v4.71h6.35v2.6h-6.35v6.8h-3.16V49.36H146.84z"/>
		<path class="st0" d="M149.47,50.77c0-1,0.78-1.72,1.87-1.72c1.1,0,1.87,0.73,1.87,1.72c0,1.02-0.78,1.72-1.87,1.72
			C150.25,52.5,149.47,51.79,149.47,50.77z M152.9,54.36v11.75h-3.11V54.36H152.9z"/>
		<path class="st0" d="M162.19,56.69c-1.92,0-2.58,1.6-2.58,3.57v5.85h-3.11V54.36h3.11l-0.02,1.77h0.07
			c0.63-1.24,1.83-1.99,3.53-1.99c3.38,0,4.23,2.18,4.23,5v6.97h-3.11v-6.29C164.31,58.08,163.99,56.69,162.19,56.69z"/>
		<path class="st0" d="M174.09,66.38c-2.29,0-4.14-1.24-4.14-3.69c0-2.45,2.41-3.4,4.84-3.57l2.82-0.19v-0.32
			c0-1.5-1-2.21-2.63-2.21c-1.56,0-2.85,0.58-3.36,0.97l-0.95-1.99c0.9-0.53,2.56-1.24,4.6-1.24c2.09,0,3.29,0.53,4.16,1.36
			c0.85,0.83,1.29,1.89,1.29,3.88v6.72h-2.99l-0.05-1.36C177.21,65.6,175.85,66.38,174.09,66.38z M173.07,62.59
			c0,1,0.75,1.68,2.04,1.68c1.22,0,2.12-0.7,2.53-1.29v-2.16l-2.12,0.12C173.88,61.04,173.07,61.6,173.07,62.59z"/>
		<path class="st0" d="M189.74,56.69c-1.92,0-2.58,1.6-2.58,3.57v5.85h-3.11V54.36h3.11l-0.02,1.77h0.07
			c0.63-1.24,1.83-1.99,3.53-1.99c3.38,0,4.23,2.18,4.23,5v6.97h-3.11v-6.29C191.86,58.08,191.54,56.69,189.74,56.69z"/>
		<path class="st0" d="M203.83,56.82h-6.06v-2.43h9.95v1.8l-6.3,7.45h6.62v2.48h-10.59v-1.82L203.83,56.82z"/>
		<path class="st0" d="M213.86,66.38c-2.29,0-4.14-1.24-4.14-3.69c0-2.45,2.41-3.4,4.84-3.57l2.82-0.19v-0.32
			c0-1.5-1-2.21-2.63-2.21c-1.56,0-2.85,0.58-3.36,0.97l-0.95-1.99c0.9-0.53,2.56-1.24,4.6-1.24c2.09,0,3.29,0.53,4.16,1.36
			c0.85,0.83,1.29,1.89,1.29,3.88v6.72h-2.99l-0.05-1.36C216.97,65.6,215.61,66.38,213.86,66.38z M212.84,62.59
			c0,1,0.75,1.68,2.04,1.68c1.22,0,2.12-0.7,2.53-1.29v-2.16l-2.12,0.12C213.64,61.04,212.84,61.6,212.84,62.59z"/>
		<path class="st0" d="M227.85,56.48c-1.02,0-1.53,0.39-1.53,0.95c0,0.51,0.39,0.92,1.7,1.34l0.83,0.27
			c2.6,0.85,3.53,1.77,3.53,3.47c0,2.23-1.78,3.88-4.67,3.88c-1.8,0-3.82-0.73-4.77-1.82l1.27-2.11c1.39,1.07,2.58,1.6,3.58,1.6
			c1.17,0,1.7-0.44,1.7-1.12c0-0.61-0.46-0.95-1.97-1.46l-1.36-0.46c-1.75-0.58-2.65-1.63-2.65-3.35c0-2.14,1.95-3.52,4.21-3.52
			c2.09,0,3.26,0.56,4.23,1.26l-1.34,2.06C229.92,56.96,228.92,56.48,227.85,56.48z"/>
		<path class="st0" d="M242.14,54.36l3.11,8.33l3.07-8.33h3.24l-5.48,13.33c-0.85,2.06-1.83,3.06-3.48,3.06
			c-1.68,0-2.77-0.49-2.77-0.49l0.63-2.38c0,0,0.83,0.29,1.41,0.29c0.61,0,1.12-0.17,1.36-0.78l0.51-1.21l-4.87-11.82H242.14z"/>
		<path class="st0" d="M105.1,87.69l-1.46,3.86h-3.29l6.59-16.77h3.07l6.59,16.77h-3.46l-1.46-3.86H105.1z M110.92,85.16l-2.51-6.77
			l-2.53,6.77H110.92z"/>
		<path class="st0" d="M127.3,89.7c-0.95,1.5-2.41,2.11-4.04,2.11c-3.46,0-5.57-2.67-5.57-6.17c0-3.33,2.21-6.07,5.79-6.07
			c1.58,0,2.92,0.58,3.75,1.85h0.05c-0.02-0.53-0.02-1.17-0.02-1.99V74.8h3.09v16.75h-2.94l-0.02-1.84H127.3z M127.32,85.65
			c0-1.97-1.29-3.69-3.29-3.69c-2.02,0-3.19,1.72-3.19,3.69c0,2.04,1.27,3.64,3.29,3.64C126.01,89.29,127.32,87.86,127.32,85.65z"/>
		<path class="st0" d="M146.76,82.13c-1.56,0-2.36,1.33-2.36,3.35v6.07h-3.11v-6.6c0-1.6-0.41-2.82-1.9-2.82
			c-1.61,0-2.31,1.5-2.31,3.35v6.07h-3.11V79.8h3.11l-0.02,1.77h0.07c0.54-1.09,1.97-1.99,3.5-1.99c1.7,0,2.73,0.68,3.29,2.23
			c0.83-1.43,2.17-2.23,3.87-2.23c3.09,0,3.94,2.18,3.94,4.88v7.09h-3.11v-6.58C148.61,83.53,148.3,82.13,146.76,82.13z"/>
		<path class="st0" d="M154.94,76.2c0-1,0.78-1.72,1.87-1.72c1.1,0,1.87,0.73,1.87,1.72c0,1.02-0.78,1.72-1.87,1.72
			C155.72,77.93,154.94,77.22,154.94,76.2z M158.37,79.8v11.75h-3.11V79.8H158.37z"/>
		<path class="st0" d="M167.67,82.13c-1.92,0-2.58,1.6-2.58,3.57v5.85h-3.11V79.8h3.11l-0.02,1.77h0.07
			c0.63-1.24,1.83-1.99,3.53-1.99c3.38,0,4.23,2.18,4.23,5v6.97h-3.11v-6.29C169.79,83.51,169.47,82.13,167.67,82.13z"/>
		<path class="st0" d="M176.11,76.2c0-1,0.78-1.72,1.87-1.72c1.1,0,1.87,0.73,1.87,1.72c0,1.02-0.78,1.72-1.87,1.72
			C176.89,77.93,176.11,77.22,176.11,76.2z M179.54,79.8v11.75h-3.11V79.8H179.54z"/>
		<path class="st0" d="M187.19,81.91c-1.02,0-1.53,0.39-1.53,0.95c0,0.51,0.39,0.92,1.7,1.34l0.83,0.27
			c2.6,0.85,3.53,1.77,3.53,3.47c0,2.23-1.78,3.88-4.67,3.88c-1.8,0-3.82-0.73-4.77-1.82l1.27-2.11c1.39,1.07,2.58,1.6,3.58,1.6
			c1.17,0,1.7-0.44,1.7-1.12c0-0.61-0.46-0.95-1.97-1.46l-1.36-0.46c-1.75-0.58-2.65-1.63-2.65-3.35c0-2.14,1.95-3.52,4.21-3.52
			c2.09,0,3.26,0.56,4.23,1.26l-1.34,2.06C189.25,82.39,188.26,81.91,187.19,81.91z"/>
		<path class="st0" d="M199.33,89.21c0.63,0,1.12-0.19,1.12-0.19l0.17,2.4c-0.15,0.05-1.07,0.39-2.38,0.39
			c-2.41,0-3.41-1.09-3.41-4.15v-5.44h-1.75v-2.4h1.75v-3.35h3.09v3.35h2.73v2.4h-2.73v4.76C197.92,88.78,198.23,89.21,199.33,89.21
			z"/>
		<path class="st0" d="M206.14,79.8l-0.05,1.89h0.07c0.46-1.26,1.63-2.11,2.9-2.11c0.8,0,1.24,0.22,1.24,0.22l-0.22,2.69h-0.15
			c-0.34-0.1-0.88-0.15-1.29-0.15c-0.92,0-1.63,0.39-2.07,1.14c-0.29,0.58-0.44,1.38-0.44,2.28v5.78h-3.09V79.8H206.14z"/>
		<path class="st0" d="M215.22,91.81c-2.29,0-4.14-1.24-4.14-3.69c0-2.45,2.41-3.4,4.84-3.57l2.82-0.19v-0.32
			c0-1.5-1-2.21-2.63-2.21c-1.56,0-2.85,0.58-3.36,0.97l-0.95-1.99c0.9-0.53,2.56-1.24,4.6-1.24c2.09,0,3.29,0.53,4.16,1.36
			c0.85,0.83,1.29,1.89,1.29,3.88v6.72h-2.99l-0.05-1.36C218.34,91.04,216.97,91.81,215.22,91.81z M214.2,88.03
			c0,1,0.75,1.68,2.04,1.68c1.22,0,2.12-0.7,2.53-1.29v-2.16l-2.12,0.12C215,86.47,214.2,87.03,214.2,88.03z"/>
		<path class="st0" d="M234.25,87.95l0.88,2.28c-0.24,0.22-1.46,1.58-4.6,1.58c-3.21,0-6.18-2.21-6.18-6.04
			c0-3.86,3.07-6.19,6.23-6.19c2.97,0,4.14,1.19,4.45,1.51l-0.85,2.33c-0.36-0.34-1.41-1.24-3.24-1.24c-1.85,0-3.33,1.29-3.33,3.45
			s1.48,3.57,3.5,3.57C233.13,89.19,234.25,87.95,234.25,87.95z"/>
		<path class="st0" d="M237.22,76.2c0-1,0.78-1.72,1.87-1.72c1.1,0,1.87,0.73,1.87,1.72c0,1.02-0.78,1.72-1.87,1.72
			C238,77.93,237.22,77.22,237.22,76.2z M240.65,79.8v11.75h-3.11V79.8H240.65z"/>
		<path class="st0" d="M243.52,85.72c0-3.71,2.77-6.14,6.4-6.14c3.6,0,6.38,2.43,6.38,6.14c0,3.71-2.77,6.09-6.38,6.09
			C246.3,91.81,243.52,89.43,243.52,85.72z M249.92,82.08c-2.04,0-3.16,1.55-3.16,3.57c0,2.01,1.12,3.59,3.16,3.59
			c2,0,3.16-1.58,3.16-3.59C253.09,83.63,251.92,82.08,249.92,82.08z M253.21,74.8l-2.6,3.52h-2.26l2.04-3.52H253.21z"/>
		<path class="st0" d="M264.77,82.13c-1.92,0-2.58,1.6-2.58,3.57v5.85h-3.11V79.8h3.11l-0.02,1.77h0.07
			c0.63-1.24,1.83-1.99,3.53-1.99c3.38,0,4.23,2.18,4.23,5v6.97h-3.11v-6.29C266.89,83.51,266.57,82.13,264.77,82.13z"/>
	</g>
	<g>
		<path class="st1" d="M104.53,111.32h2.58v2.45c-0.21,0.2-1,1.02-2.64,1.02c-1.73,0-3.17-1.09-3.17-3.14
			c0-1.96,1.43-3.14,3.15-3.14c1.58,0,2.28,0.84,2.5,1.06l-0.77,0.68c-0.31-0.35-0.83-0.77-1.73-0.77c-1.12,0-1.97,0.79-1.97,2.16
			s0.88,2.16,2.01,2.16c1.12,0,1.5-0.46,1.5-0.46v-1.12h-1.47V111.32z"/>
		<path class="st1" d="M109.95,111.63c0-1.96,1.43-3.14,3.2-3.14c1.77,0,3.2,1.18,3.2,3.14c0,1.96-1.43,3.14-3.2,3.14
			C111.39,114.78,109.95,113.6,109.95,111.63z M113.15,109.49c-1.13,0-2.01,0.81-2.01,2.14c0,1.32,0.89,2.15,2.01,2.15
			c1.13,0,2.01-0.82,2.01-2.15C115.16,110.3,114.28,109.49,113.15,109.49z"/>
		<path class="st1" d="M121.43,108.58c0.5,0,0.96,0.04,1.35,0.24c0.48,0.23,0.79,0.6,0.79,1.3c0,0.74-0.55,1.17-0.95,1.33v0.02
			c0.79,0.18,1.31,0.69,1.31,1.47c0,0.66-0.31,1.14-0.73,1.4c-0.38,0.24-0.92,0.34-1.5,0.34h-2.23v-6.09H121.43z M122.07,110.97
			c0.21-0.13,0.34-0.34,0.34-0.71c0-0.53-0.42-0.79-1.01-0.79h-0.77v1.64h0.72C121.66,111.12,121.88,111.09,122.07,110.97z
			 M122.43,113.6c0.2-0.13,0.34-0.41,0.34-0.72c0-0.34-0.15-0.57-0.38-0.72c-0.23-0.16-0.47-0.19-0.82-0.19h-0.94v1.81h0.99
			C121.91,113.77,122.19,113.76,122.43,113.6z"/>
		<path class="st1" d="M128.17,108.58v6.09h-1.15v-6.09H128.17z"/>
		<path class="st1" d="M135.39,108.58v0.95h-2.62v1.51h2.47v0.94h-2.47v1.73h2.69v0.95h-3.84v-6.09H135.39z"/>
		<path class="st1" d="M139.8,112.2v2.47h-1.15v-6.09h1.97c0.65,0,1.16,0.14,1.54,0.43c0.38,0.29,0.65,0.76,0.65,1.34
			c0,1.05-0.58,1.47-1.32,1.7l1.65,2.61h-1.35l-1.44-2.47H139.8z M141.27,111.11c0.23-0.17,0.35-0.37,0.35-0.72
			c0-0.34-0.12-0.56-0.35-0.72c-0.22-0.17-0.5-0.19-0.88-0.19h-0.6v1.82h0.6C140.77,111.3,141.05,111.27,141.27,111.11z"/>
		<path class="st1" d="M147.05,111.68v2.99h-1.12v-6.09h1.22l3.04,4.44c0,0-0.02-0.72-0.02-1.44v-3h1.12v6.09h-1.16l-3.1-4.49
			C147.03,110.18,147.05,110.96,147.05,111.68z"/>
		<path class="st1" d="M154.42,111.63c0-1.96,1.43-3.14,3.2-3.14c1.77,0,3.2,1.18,3.2,3.14c0,1.96-1.43,3.14-3.2,3.14
			C155.86,114.78,154.42,113.6,154.42,111.63z M157.62,109.49c-1.13,0-2.01,0.81-2.01,2.14c0,1.32,0.89,2.15,2.01,2.15
			c1.13,0,2.01-0.82,2.01-2.15C159.63,110.3,158.75,109.49,157.62,109.49z"/>
		<path class="st1" d="M169.88,108.58c1.06,0,1.85,0.34,2.32,0.77c0.48,0.41,0.97,1.11,0.97,2.27c0,1.17-0.5,1.88-0.97,2.3
			c-0.47,0.41-1.26,0.76-2.32,0.76h-1.96v-6.09H169.88z M171.38,113.2c0.29-0.28,0.61-0.75,0.61-1.57c0-0.81-0.32-1.31-0.61-1.59
			c-0.3-0.27-0.79-0.49-1.45-0.49h-0.85v4.16h0.85C170.59,113.7,171.08,113.48,171.38,113.2z"/>
		<path class="st1" d="M180.07,108.58v0.95h-2.62v1.51h2.47v0.94h-2.47v1.73h2.69v0.95h-3.84v-6.09H180.07z"/>
		<path class="st1" d="M192.57,110.07l-1.63,4.63h-0.81l-1.59-4.63h-0.03l-0.33,4.6h-1.11l0.5-6.09h1.51l1.48,4.37h0.02l1.5-4.37
			h1.46l0.52,6.09h-1.13l-0.35-4.6H192.57z"/>
		<path class="st1" d="M198.43,108.58v6.09h-1.15v-6.09H198.43z"/>
		<path class="st1" d="M204.72,114.78c-1.79,0-3.17-1.21-3.17-3.14c0-1.93,1.4-3.14,3.17-3.14c1.2,0,1.89,0.5,2.13,0.75l-0.41,0.94
			c-0.18-0.23-0.87-0.7-1.73-0.7c-1.06,0-1.97,0.7-1.97,2.14c0,1.32,0.82,2.17,2.04,2.17c0.81,0,1.38-0.35,1.74-0.74l0.41,0.87
			C206.59,114.28,205.93,114.78,204.72,114.78z"/>
		<path class="st1" d="M211.08,111.98v2.69h-1.15v-6.09h1.15v2.44h2.85v-2.44h1.14v6.09h-1.14v-2.69H211.08z"/>
		<path class="st1" d="M218.2,111.63c0-1.96,1.43-3.14,3.2-3.14c1.77,0,3.2,1.18,3.2,3.14c0,1.96-1.43,3.14-3.2,3.14
			C219.63,114.78,218.2,113.6,218.2,111.63z M221.39,109.49c-1.13,0-2.01,0.81-2.01,2.14c0,1.32,0.89,2.15,2.01,2.15
			c1.13,0,2.01-0.82,2.01-2.15C223.4,110.3,222.53,109.49,221.39,109.49z"/>
		<path class="st1" d="M228.64,113.27l-0.53,1.4h-1.19l2.4-6.1h1.12l2.4,6.1h-1.26l-0.53-1.4H228.64z M230.76,112.35l-0.91-2.46
			l-0.92,2.46H230.76z"/>
		<path class="st1" d="M238.32,114.78c-1.79,0-3.17-1.21-3.17-3.14c0-1.93,1.4-3.14,3.17-3.14c1.2,0,1.89,0.5,2.13,0.75l-0.41,0.94
			c-0.18-0.23-0.87-0.7-1.73-0.7c-1.06,0-1.97,0.7-1.97,2.14c0,1.32,0.82,2.17,2.04,2.17c0.81,0,1.38-0.35,1.74-0.74l0.41,0.87
			C240.19,114.28,239.53,114.78,238.32,114.78z"/>
		<path class="st1" d="M244.67,113.27l-0.53,1.4h-1.19l2.4-6.1h1.12l2.4,6.1h-1.26l-0.53-1.4H244.67z M246.78,112.35l-0.91-2.46
			l-0.92,2.46H246.78z M247.22,106.89l-0.95,1.28h-0.82l0.74-1.28H247.22z"/>
		<path class="st1" d="M252.81,111.68v2.99h-1.12v-6.09h1.22l3.04,4.44c0,0-0.02-0.72-0.02-1.44v-3h1.12v6.09h-1.16l-3.1-4.49
			C252.79,110.18,252.81,110.96,252.81,111.68z"/>
	</g>
	<g>
		<path class="st0" d="M51.67,53.75c-0.02,0.01-0.04,0.03-0.07,0.04c-0.02,0.02-0.04,0.03-0.06,0.05c0,0-0.01,0.01-0.01,0.01
			c-0.01,0.01-0.02,0.02-0.03,0.03c-0.02,0.02-0.04,0.04-0.06,0.07c-0.01,0.02-0.02,0.03-0.04,0.05c-0.01,0.02-0.03,0.04-0.04,0.07
			c-0.01,0.02-0.02,0.04-0.03,0.06c-0.01,0.02-0.02,0.04-0.02,0.07c-0.01,0.02-0.01,0.05-0.02,0.07c0,0.02-0.01,0.05-0.01,0.07
			c0,0.02,0,0.05,0,0.07c0,0.02,0,0.05,0,0.07c0,0.03,0.01,0.05,0.01,0.08c0,0.02,0.01,0.04,0.02,0.06
			c0.01,0.03,0.02,0.05,0.03,0.08c0.01,0.01,0.01,0.03,0.02,0.04c0,0,0.01,0.01,0.01,0.01c0.03,0.05,0.06,0.1,0.1,0.15l0.01,0.01
			c0,0,0,0,0,0l3.02,3.39c0,0,0,0,0.01,0.01c0.01,0.01,0.02,0.02,0.04,0.03c0.03,0.03,0.07,0.06,0.11,0.09
			c0.02,0.01,0.03,0.02,0.05,0.03c0.04,0.02,0.08,0.04,0.12,0.05c0.02,0.01,0.03,0.01,0.05,0.02c0.06,0.01,0.12,0.02,0.18,0.02
			c0,0,0,0,0,0c0,0,0,0,0,0c0,0,0,0,0,0c0.05,0,0.1-0.01,0.15-0.02c0.01,0,0.03-0.01,0.04-0.01c0.04-0.01,0.07-0.02,0.11-0.04
			c0.01,0,0.02-0.01,0.03-0.01c0.02-0.01,1.68-0.83,3.31-0.83c1.62,0,3.3,0.82,3.31,0.83c0.01,0.01,0.02,0.01,0.03,0.01
			c0.03,0.01,0.05,0.02,0.08,0.03c0.02,0.01,0.04,0.01,0.05,0.01c0.03,0.01,0.06,0.01,0.09,0.01c0.02,0,0.03,0,0.05,0
			c0.01,0,0.02,0,0.03,0c0.02,0,0.03,0,0.05-0.01c0.02,0,0.05,0,0.07-0.01c0.03,0,0.05-0.01,0.08-0.02
			c0.02-0.01,0.04-0.01,0.07-0.02c0.02-0.01,0.05-0.02,0.07-0.03c0.02-0.01,0.04-0.02,0.06-0.04c0.02-0.01,0.04-0.03,0.06-0.04
			c0.02-0.02,0.04-0.04,0.06-0.06c0.01-0.01,0.02-0.02,0.03-0.03l3.04-3.41c0-0.01,0.01-0.01,0.01-0.02
			c0.02-0.02,0.03-0.04,0.04-0.06c0.01-0.02,0.03-0.04,0.04-0.07c0-0.01,0.01-0.01,0.01-0.02c0.01-0.01,0.01-0.03,0.02-0.04
			c0.01-0.03,0.02-0.05,0.03-0.08c0.01-0.02,0.01-0.04,0.01-0.06c0.01-0.03,0.01-0.05,0.01-0.08c0-0.02,0-0.04,0-0.07
			c0-0.03,0-0.05,0-0.08c0-0.02-0.01-0.04-0.01-0.07c0-0.03-0.01-0.05-0.02-0.07c-0.01-0.02-0.01-0.04-0.02-0.06
			c-0.01-0.02-0.02-0.05-0.03-0.07C66.02,54.04,66.01,54.02,66,54c-0.01-0.02-0.03-0.04-0.04-0.06c-0.02-0.02-0.04-0.04-0.06-0.06
			c-0.01-0.01-0.02-0.02-0.03-0.03c0,0-0.01-0.01-0.02-0.01c-0.02-0.02-0.04-0.03-0.06-0.05c-0.02-0.01-0.04-0.03-0.06-0.04
			c-0.01,0-0.01-0.01-0.02-0.01C65.57,53.67,62.17,52,58.7,52c-3.48,0-6.87,1.67-7.01,1.74C51.68,53.74,51.67,53.75,51.67,53.75z
			 M64.14,54.67l-2,2.24c-0.72-0.29-2.07-0.75-3.45-0.75c-1.38,0-2.73,0.46-3.45,0.75l-2-2.24c1.17-0.47,3.33-1.19,5.45-1.19
			C60.81,53.48,62.97,54.2,64.14,54.67z"/>
		<path class="st0" d="M61.76,59.57c-0.06-0.03-1.54-0.76-3.06-0.76c-1.52,0-3,0.73-3.07,0.76c-0.37,0.18-0.52,0.63-0.33,0.99
			c0.18,0.36,0.63,0.51,1,0.33c0.01-0.01,1.23-0.6,2.4-0.6c1.17,0,2.39,0.6,2.4,0.6c0.11,0.05,0.22,0.08,0.33,0.08
			c0.27,0,0.54-0.15,0.67-0.41C62.28,60.19,62.13,59.75,61.76,59.57z"/>
		<path class="st0" d="M51.28,33.33c0,0.03,0.01,0.05,0.01,0.08c0,0.02,0.01,0.04,0.02,0.06c0.01,0.03,0.02,0.05,0.03,0.08
			c0.01,0.01,0.01,0.03,0.02,0.04c0,0.01,0.01,0.01,0.01,0.02c0.01,0.02,0.03,0.04,0.04,0.06c0.01,0.02,0.03,0.04,0.04,0.06
			c0,0.01,0.01,0.01,0.01,0.02l3.04,3.41c0,0,0,0,0.01,0.01c0.01,0.01,0.02,0.02,0.04,0.03c0.03,0.03,0.07,0.06,0.11,0.09
			c0.02,0.01,0.03,0.02,0.05,0.03c0.04,0.02,0.08,0.04,0.12,0.05c0.02,0.01,0.03,0.01,0.05,0.02c0.06,0.02,0.12,0.02,0.18,0.02
			c0,0,0,0,0,0c0,0,0,0,0,0c0,0,0,0,0,0c0.05,0,0.1-0.01,0.15-0.02c0.01,0,0.03-0.01,0.04-0.01c0.04-0.01,0.07-0.02,0.11-0.04
			c0.01,0,0.02-0.01,0.03-0.01c0.02-0.01,1.68-0.83,3.31-0.83c1.62,0,3.3,0.82,3.31,0.83c0.01,0.01,0.02,0.01,0.03,0.01
			c0.03,0.01,0.05,0.02,0.08,0.03c0.02,0.01,0.04,0.01,0.05,0.01c0.03,0.01,0.06,0.01,0.09,0.01c0.02,0,0.03,0,0.05,0
			c0.01,0,0.02,0,0.03,0c0.02,0,0.03,0,0.05-0.01c0.02,0,0.05,0,0.07-0.01c0.03,0,0.05-0.01,0.08-0.02
			c0.02-0.01,0.04-0.01,0.07-0.02c0.02-0.01,0.05-0.02,0.07-0.03c0.02-0.01,0.04-0.02,0.06-0.04c0.02-0.01,0.04-0.03,0.06-0.04
			c0.02-0.02,0.04-0.04,0.06-0.06c0.01-0.01,0.02-0.02,0.03-0.03l3.02-3.39c0,0,0,0,0,0l0.01-0.01c0.04-0.05,0.07-0.1,0.1-0.15
			c0,0,0.01-0.01,0.01-0.01c0.01-0.01,0.01-0.03,0.02-0.04c0.01-0.03,0.02-0.05,0.03-0.08c0.01-0.02,0.01-0.04,0.01-0.06
			c0.01-0.03,0.01-0.05,0.01-0.08c0-0.02,0-0.04,0-0.07c0-0.03,0-0.05,0-0.08c0-0.02-0.01-0.04-0.01-0.07
			c0-0.03-0.01-0.05-0.02-0.07c-0.01-0.02-0.01-0.04-0.02-0.06c-0.01-0.02-0.02-0.05-0.03-0.07c-0.01-0.02-0.02-0.04-0.04-0.06
			c-0.01-0.02-0.03-0.04-0.04-0.06c-0.02-0.02-0.04-0.04-0.06-0.06c-0.01-0.01-0.02-0.02-0.03-0.03c0,0-0.01-0.01-0.02-0.01
			c-0.02-0.02-0.04-0.03-0.06-0.05c-0.02-0.01-0.04-0.03-0.06-0.04c-0.01,0-0.01-0.01-0.02-0.01c-0.14-0.07-3.54-1.74-7.01-1.74
			c-3.48,0-6.87,1.67-7.01,1.74c-0.01,0-0.01,0.01-0.02,0.01c-0.02,0.01-0.04,0.03-0.07,0.04c-0.02,0.01-0.04,0.03-0.06,0.05
			c0,0-0.01,0.01-0.01,0.01c-0.01,0.01-0.02,0.02-0.03,0.03c-0.02,0.02-0.04,0.04-0.06,0.07c-0.01,0.02-0.02,0.03-0.04,0.05
			c-0.01,0.02-0.03,0.04-0.04,0.07c-0.01,0.02-0.02,0.04-0.03,0.06c-0.01,0.02-0.02,0.04-0.02,0.07c-0.01,0.02-0.01,0.05-0.02,0.07
			c0,0.02-0.01,0.05-0.01,0.07s0,0.05,0,0.07C51.28,33.28,51.28,33.3,51.28,33.33z M64.14,33.53l-2,2.24
			c-0.72-0.29-2.07-0.75-3.45-0.75c-1.38,0-2.73,0.46-3.45,0.75l-2-2.24c1.17-0.47,3.33-1.19,5.45-1.19
			C60.81,32.33,62.97,33.05,64.14,33.53z"/>
		<path class="st0" d="M56.3,39.74c0.01-0.01,1.23-0.6,2.4-0.6s2.39,0.6,2.4,0.6c0.11,0.05,0.22,0.08,0.33,0.08
			c0.27,0,0.54-0.15,0.67-0.41c0.18-0.37,0.03-0.81-0.33-0.99c-0.06-0.03-1.54-0.76-3.06-0.76c-1.52,0-3,0.73-3.07,0.76
			c-0.37,0.18-0.52,0.63-0.33,0.99C55.48,39.78,55.93,39.93,56.3,39.74z"/>
		<path class="st0" d="M42.75,43.29c-0.02,0.01-0.04,0.03-0.06,0.04c-0.02,0.02-0.05,0.03-0.07,0.05c0,0-0.01,0.01-0.01,0.01
			c-0.01,0.01-0.02,0.02-0.03,0.03c-0.02,0.02-0.04,0.04-0.06,0.07c-0.01,0.02-0.02,0.03-0.04,0.05c-0.01,0.02-0.03,0.04-0.04,0.07
			c-0.01,0.02-0.02,0.04-0.03,0.06c-0.01,0.02-0.02,0.04-0.02,0.07c-0.01,0.02-0.01,0.05-0.02,0.07c0,0.02-0.01,0.05-0.01,0.07
			c0,0.02,0,0.05,0,0.07c0,0.02,0,0.05,0,0.07c0,0.03,0.01,0.05,0.01,0.08c0,0.02,0.01,0.04,0.02,0.06
			c0.01,0.03,0.02,0.05,0.03,0.08c0.01,0.01,0.01,0.03,0.02,0.04c0,0,0.01,0.01,0.01,0.01c0.03,0.05,0.06,0.1,0.1,0.15l0.01,0.01
			c0,0,0,0,0,0l3.02,3.39c0,0,0,0,0.01,0.01c0.01,0.01,0.02,0.02,0.04,0.03c0.03,0.03,0.07,0.06,0.11,0.09
			c0.02,0.01,0.03,0.02,0.05,0.03c0.04,0.02,0.08,0.04,0.12,0.05c0.02,0.01,0.03,0.01,0.05,0.02c0.06,0.01,0.12,0.02,0.18,0.02
			c0,0,0,0,0,0c0,0,0,0,0,0c0,0,0,0,0,0c0.05,0,0.1-0.01,0.15-0.02c0.01,0,0.03-0.01,0.04-0.01c0.04-0.01,0.07-0.02,0.11-0.04
			c0.01,0,0.02-0.01,0.03-0.01c0.02-0.01,1.68-0.83,3.31-0.83c1.62,0,3.3,0.82,3.31,0.83c0.01,0.01,0.02,0.01,0.03,0.01
			c0.03,0.01,0.05,0.02,0.08,0.03c0.02,0.01,0.03,0.01,0.05,0.01c0.03,0.01,0.06,0.01,0.09,0.01c0.01,0,0.03,0,0.04,0
			c0.01,0,0.02,0,0.03,0c0.02,0,0.04,0,0.06-0.01c0.02,0,0.04,0,0.06-0.01c0.03,0,0.05-0.01,0.08-0.02
			c0.02-0.01,0.04-0.01,0.06-0.02c0.02-0.01,0.05-0.02,0.07-0.03c0.02-0.01,0.04-0.02,0.06-0.04c0.02-0.01,0.04-0.03,0.06-0.04
			c0.02-0.02,0.05-0.04,0.07-0.06c0.01-0.01,0.02-0.02,0.03-0.03l3.04-3.41c0.01-0.01,0.01-0.01,0.01-0.02
			c0.02-0.02,0.03-0.04,0.04-0.06c0.01-0.02,0.03-0.04,0.04-0.07c0-0.01,0.01-0.01,0.01-0.02c0.01-0.01,0.01-0.03,0.02-0.04
			c0.01-0.03,0.02-0.05,0.03-0.08c0.01-0.02,0.01-0.04,0.01-0.06c0.01-0.03,0.01-0.05,0.01-0.08c0-0.02,0-0.04,0-0.07
			c0-0.03,0-0.05,0-0.07c0-0.02-0.01-0.04-0.01-0.07c0-0.03-0.01-0.05-0.02-0.07c-0.01-0.02-0.01-0.04-0.02-0.06
			c-0.01-0.02-0.02-0.05-0.03-0.07c-0.01-0.02-0.02-0.04-0.04-0.06c-0.01-0.02-0.03-0.04-0.04-0.06c-0.02-0.02-0.04-0.04-0.06-0.06
			c-0.01-0.01-0.02-0.02-0.03-0.03c0,0-0.01-0.01-0.02-0.01c-0.02-0.02-0.04-0.03-0.07-0.05c-0.02-0.01-0.04-0.03-0.06-0.04
			c-0.01,0-0.01-0.01-0.02-0.01c-0.14-0.07-3.54-1.74-7.01-1.74c-3.48,0-6.87,1.67-7.01,1.74C42.76,43.29,42.76,43.29,42.75,43.29z
			 M55.23,44.22l-2,2.24c-0.72-0.29-2.07-0.75-3.45-0.75c-1.38,0-2.73,0.46-3.45,0.75l-2-2.24c1.17-0.47,3.33-1.19,5.45-1.19
			C51.9,43.02,54.05,43.75,55.23,44.22z"/>
		<path class="st0" d="M52.84,49.11c-0.06-0.03-1.54-0.76-3.06-0.76c-1.52,0-3,0.73-3.07,0.76c-0.37,0.18-0.52,0.63-0.33,0.99
			c0.18,0.37,0.63,0.51,1,0.33c0.01-0.01,1.23-0.6,2.4-0.6s2.39,0.6,2.4,0.6c0.11,0.05,0.22,0.08,0.33,0.08
			c0.27,0,0.54-0.15,0.67-0.41C53.36,49.74,53.21,49.29,52.84,49.11z"/>
		<path class="st0" d="M64.77,93.66c-0.1-0.08-2.57-1.97-5.13-1.97c-1.94,0-3.83,1.09-4.67,1.65c-0.84-0.56-2.73-1.65-4.67-1.65
			c-2.56,0-5.02,1.89-5.13,1.97c-0.32,0.25-0.38,0.72-0.13,1.04c0.15,0.19,0.37,0.29,0.59,0.29c0.16,0,0.32-0.05,0.46-0.16
			c0.02-0.02,2.16-1.66,4.21-1.66c2.05,0,4.19,1.64,4.21,1.66c0.02,0.01,0.04,0.02,0.06,0.04c0.02,0.01,0.03,0.02,0.05,0.03
			c0.03,0.01,0.05,0.02,0.08,0.03c0.02,0.01,0.04,0.02,0.06,0.02c0.03,0.01,0.05,0.01,0.08,0.02c0.02,0,0.04,0.01,0.06,0.01
			c0.02,0,0.05,0,0.07,0c0.02,0,0.05,0,0.07,0c0.02,0,0.04-0.01,0.06-0.01c0.03,0,0.05-0.01,0.08-0.02
			c0.02-0.01,0.04-0.01,0.06-0.02c0.03-0.01,0.05-0.02,0.08-0.03c0.02-0.01,0.03-0.02,0.05-0.03c0.02-0.01,0.04-0.02,0.06-0.04
			c0.02-0.02,2.17-1.66,4.21-1.66c2.05,0,4.19,1.64,4.22,1.66c0.14,0.1,0.3,0.15,0.45,0.15c0.22,0,0.44-0.1,0.59-0.29
			C65.15,94.38,65.1,93.91,64.77,93.66z"/>
		<path class="st0" d="M44.9,90.73c0,0.02,0.01,0.04,0.01,0.06c0.01,0.03,0.01,0.05,0.02,0.07c0.01,0.02,0.02,0.04,0.02,0.07
			c0.01,0.02,0.02,0.04,0.03,0.06c0.01,0.02,0.03,0.05,0.05,0.07c0,0.01,0.01,0.01,0.01,0.02c0.01,0.01,0.01,0.01,0.02,0.02
			c0.03,0.03,0.05,0.06,0.08,0.08c0.01,0.01,0.02,0.02,0.04,0.03c0.03,0.02,0.07,0.05,0.1,0.07c0.01,0.01,0.02,0.01,0.03,0.02
			c0.1,0.04,0.2,0.07,0.31,0.07c0.02,0,0.05,0,0.07-0.01c0.02,0,0.04,0,0.05-0.01c0.03,0,0.05-0.01,0.08-0.02
			c0.02,0,0.03-0.01,0.05-0.01c0.03-0.01,0.05-0.02,0.08-0.03c0.01-0.01,0.03-0.01,0.04-0.02c0.02-0.01,0.05-0.03,0.07-0.04
			c0,0,0.01-0.01,0.01-0.01c0.02-0.02,2.17-1.66,4.22-1.66s4.19,1.64,4.21,1.66c0.01,0,0.01,0.01,0.02,0.01
			c0.03,0.02,0.05,0.03,0.08,0.05c0.01,0.01,0.02,0.01,0.04,0.02c0,0,0.01,0,0.01,0.01c0.03,0.01,0.06,0.02,0.09,0.03
			c0.02,0,0.03,0.01,0.05,0.01c0,0,0,0,0.01,0c0,0,0.01,0,0.01,0c0.03,0.01,0.05,0.01,0.08,0.01c0.02,0,0.03,0,0.05,0.01
			c0.01,0,0.02,0,0.03,0c0.01,0,0.02,0,0.03,0c0.01,0,0.02,0,0.04,0c0.01,0,0.02,0,0.03,0c0.01,0,0.02,0,0.03,0
			c0.02,0,0.04-0.01,0.06-0.01c0.02-0.01,0.05-0.01,0.07-0.02c0.02-0.01,0.04-0.02,0.06-0.03c0.01-0.01,0.03-0.01,0.04-0.02
			c0.01,0,0.01-0.01,0.02-0.01c0,0,0,0,0,0c0.02-0.01,0.04-0.02,0.06-0.04c0.01,0,0.01-0.01,0.02-0.01
			c0.02-0.02,2.16-1.66,4.21-1.66c2.05,0,4.19,1.64,4.22,1.66c0,0,0.01,0.01,0.02,0.01c0.03,0.02,0.06,0.04,0.09,0.05
			c0.01,0.01,0.02,0.01,0.04,0.02c0.03,0.01,0.06,0.03,0.1,0.04c0.01,0,0.03,0.01,0.04,0.01c0.03,0.01,0.06,0.01,0.1,0.02
			c0.02,0,0.03,0,0.05,0.01c0.01,0,0.02,0,0.03,0c0.02,0,0.04,0,0.06-0.01c0.02,0,0.04,0,0.05-0.01c0.03,0,0.06-0.01,0.09-0.02
			c0.02,0,0.03-0.01,0.05-0.01c0.03-0.01,0.06-0.02,0.09-0.04c0.02-0.01,0.03-0.02,0.04-0.02c0.03-0.02,0.05-0.03,0.08-0.05
			c0.01-0.01,0.03-0.02,0.04-0.03c0.03-0.02,0.05-0.05,0.07-0.07c0.01-0.01,0.01-0.01,0.02-0.02c0,0,0.01-0.01,0.01-0.01
			c0.02-0.03,0.04-0.06,0.05-0.08c0.01-0.01,0.02-0.03,0.02-0.04c0.01-0.03,0.02-0.05,0.03-0.08c0.01-0.02,0.01-0.04,0.02-0.06
			c0.01-0.02,0.01-0.05,0.01-0.07c0-0.03,0.01-0.05,0.01-0.08c0-0.01,0-0.02,0-0.02V79.75c0-0.01,0-0.03,0-0.04
			c0-0.03,0-0.05-0.01-0.08c0-0.02-0.01-0.04-0.01-0.06c-0.01-0.03-0.01-0.05-0.02-0.07c-0.01-0.02-0.02-0.04-0.03-0.06
			c-0.01-0.02-0.02-0.05-0.04-0.07c-0.01-0.02-0.02-0.03-0.04-0.05c-0.02-0.02-0.03-0.04-0.05-0.06c-0.02-0.02-0.03-0.03-0.05-0.05
			c-0.01-0.01-0.02-0.02-0.04-0.03c-0.1-0.08-2.57-1.97-5.13-1.97c-1.94,0-3.83,1.09-4.67,1.65c-0.84-0.56-2.73-1.65-4.67-1.65
			c-2.56,0-5.02,1.89-5.13,1.97c-0.01,0.01-0.03,0.03-0.04,0.04c-0.01,0.01-0.03,0.03-0.04,0.04c-0.02,0.02-0.04,0.05-0.06,0.07
			c-0.01,0.01-0.02,0.03-0.03,0.04c-0.02,0.03-0.03,0.05-0.04,0.08c-0.01,0.02-0.01,0.03-0.02,0.05c-0.01,0.03-0.02,0.06-0.03,0.09
			c0,0.02-0.01,0.03-0.01,0.05c-0.01,0.03-0.01,0.06-0.01,0.1c0,0.01,0,0.02,0,0.03v10.87c0,0.01,0,0.01,0,0.02
			C44.89,90.67,44.9,90.7,44.9,90.73z M63.57,80.13v9.13c-0.98-0.55-2.43-1.19-3.93-1.19c-1.49,0-2.95,0.64-3.93,1.19v-9.13
			c0.65-0.44,2.32-1.45,3.93-1.45C61.25,78.68,62.92,79.69,63.57,80.13z M54.23,80.13v9.13c-0.98-0.55-2.43-1.19-3.93-1.19
			c-1.49,0-2.95,0.64-3.93,1.19v-9.13c0.65-0.44,2.32-1.45,3.93-1.45C51.91,78.68,53.58,79.69,54.23,80.13z"/>
		<path class="st0" d="M46.06,19.12c-1.73-3.81-3.65-7.34-5.94-7.34c-2.3,0-4.22,3.53-5.94,7.34l-0.3,0.65
			c-0.82,1.73-1.66,3.51-1.66,5.36c0,1.25,1.13,2.42,2.34,2.42c0.45,0,1.07-0.23,2.21-0.68c1.09-0.42,2.57-1,3.37-1
			c0.79,0,2.28,0.58,3.36,1c1.14,0.45,1.76,0.68,2.21,0.68c1.2,0,2.34-1.18,2.34-2.42c0-1.85-0.85-3.63-1.66-5.36L46.06,19.12z
			 M45.69,26.07c-0.23-0.01-1.06-0.34-1.67-0.58c-1.33-0.52-2.83-1.11-3.91-1.11s-2.58,0.59-3.91,1.11
			c-0.61,0.24-1.44,0.56-1.66,0.58c-0.35,0-0.85-0.47-0.85-0.94c0-1.51,0.74-3.07,1.52-4.73l0.31-0.67c0.73-1.6,2.93-6.47,4.59-6.47
			c1.66,0,3.86,4.87,4.59,6.47l0.31,0.67c0.78,1.65,1.52,3.21,1.52,4.73C46.53,25.6,46.04,26.07,45.69,26.07z"/>
		<path class="st0" d="M29.99,25.31c0.41,0,0.74-0.33,0.74-0.74s-0.33-0.74-0.74-0.74H10.39c-0.41,0-0.74,0.33-0.74,0.74v75.61
			c0,1.68,1.14,3.12,3.01,3.76l21.18,6c1.88,0.53,4.04,1.25,5.83,2.62c0.04,0.03,0.08,0.05,0.12,0.07c0.01,0.01,0.02,0.01,0.03,0.01
			c0.04,0.02,0.07,0.03,0.11,0.04c0.01,0,0.03,0.01,0.04,0.01c0.05,0.01,0.1,0.02,0.15,0.02c0,0,0,0,0,0s0,0,0,0
			c0.05,0,0.1-0.01,0.15-0.02c0.01,0,0.03-0.01,0.04-0.01c0.04-0.01,0.08-0.02,0.11-0.04c0.01,0,0.02-0.01,0.03-0.01
			c0.04-0.02,0.08-0.04,0.12-0.07c1.79-1.37,3.95-2.09,5.83-2.62l21.21-6.01c1.84-0.63,2.97-2.07,2.97-3.75V24.57
			c0-0.41-0.33-0.74-0.74-0.74H50.23c-0.41,0-0.74,0.33-0.74,0.74s0.33,0.74,0.74,0.74h18.86v41.51H40.86v-2.94
			c0.03-0.12,0.03-0.25,0-0.37V28.13c0-0.41-0.33-0.74-0.74-0.74s-0.74,0.33-0.74,0.74v12.09c-0.17,0.2-0.37,0.41-0.6,0.65
			c-1.36,1.44-3.71,3.94-5.79,8.63c-2.1-4.08-3.22-6.07-3.7-6.54c-0.26-0.26-0.51-0.49-0.75-0.69c-0.01-0.01-0.01-0.01-0.02-0.02
			c-0.84-0.7-1.52-1.04-1.94-1.2l0.01-0.03c0.02-0.08,0.01-0.15,0.01-0.23c1.19,0,2.13-0.32,2.2-0.35l0.61-0.21l-0.66-3.23l0.93-1.2
			l-0.29-0.44c-0.07-0.11-1.33-2.02-2.32-3.36c0,0-0.01-0.01-0.01-0.01c-0.33-0.44-0.62-0.82-0.84-1.05
			c-1.2-1.28-3.86-0.98-5.82,0.66c-2.72,2.28-1.86,5.85-1.02,7.43c-0.21-0.02-0.46-0.07-0.76-0.16c-1.09-0.34-1.68-0.77-1.68-0.77
			c-0.33-0.25-0.79-0.19-1.04,0.14c-0.25,0.32-0.19,0.79,0.14,1.04c0.08,0.06,0.8,0.6,2.15,1.01c0.18,0.06,0.35,0.1,0.51,0.13
			c-1.06,0.25-2.27,0.7-3.13,1.56c-1.09,1.09-3.13,3.77-4.43,5.52V25.31H29.99z M15.73,50.64l1.19,4.76
			c-0.56,1.16-2.91,6.15-4.12,11.15c-0.02,0.09-0.02,0.19-0.01,0.28h-1.66V56.49L15.73,50.64z M20.47,41.64l3,7.56v0.26
			c-2.64-2.07-3.98-6.03-4.43-7.61C19.6,41.73,20.11,41.67,20.47,41.64z M27.47,58.35c-0.6-0.53-1-1.01-1.27-1.38
			c0.32-0.08,0.62-0.15,0.9-0.21c0.9-0.21,1.68-0.39,2.45-0.66C28.95,56.84,28.25,57.6,27.47,58.35z M24.96,57.78
			c0.31,0.45,0.76,0.99,1.42,1.58c-0.45,0.4-0.93,0.79-1.42,1.17V57.78z M23.77,53.73c0.47-0.31,0.86-0.37,1.16-0.18
			c0.4,0.25,0.59,0.84,0.55,1.13c-0.05,0.38-0.39,0.75-0.8,1.03c-0.04,0.02-0.08,0.05-0.12,0.08c-0.38,0.24-0.79,0.39-1.09,0.39
			c0,0-0.01,0-0.01,0c-0.35-0.01-0.54-0.3-0.83-0.91l-0.07-0.16C22.43,54.73,22.54,54.55,23.77,53.73z M23.77,63.09
			c0.02,0.03,0.05,0.06,0.08,0.09l3.64,3.64H17.07c1.8-2.02,3.45-2.56,4.92-3.04C22.61,63.57,23.21,63.38,23.77,63.09z M39.37,68.3
			v14.38H35.4l-0.86-10.44c0-0.02-0.01-0.03-0.01-0.05c0-0.02-0.01-0.04-0.01-0.06c-0.01-0.03-0.02-0.06-0.03-0.09
			c-0.01-0.01-0.01-0.03-0.02-0.04c-0.01-0.03-0.03-0.07-0.05-0.1c-0.01-0.01-0.01-0.02-0.02-0.02c-0.02-0.03-0.05-0.06-0.07-0.09
			c-0.01-0.01-0.01-0.01-0.02-0.02c-0.03-0.02-0.05-0.05-0.08-0.07c-0.01-0.01-0.02-0.02-0.04-0.02c-0.02-0.01-0.05-0.03-0.07-0.04
			c-0.02-0.01-0.04-0.02-0.06-0.03c-0.02-0.01-0.04-0.01-0.06-0.02c-0.03-0.01-0.06-0.02-0.09-0.02c-0.02,0-0.04,0-0.06-0.01
			c-0.02,0-0.04-0.01-0.06-0.01h-2.23c-0.02,0-0.04,0-0.05,0.01c-0.02,0-0.04,0-0.06,0.01c-0.03,0-0.05,0.01-0.08,0.02
			c-0.02,0.01-0.04,0.01-0.07,0.02c-0.02,0.01-0.04,0.02-0.06,0.03c-0.03,0.01-0.05,0.03-0.08,0.04c-0.01,0.01-0.02,0.02-0.03,0.02
			c-0.03,0.02-0.06,0.04-0.08,0.07c-0.01,0.01-0.01,0.01-0.02,0.02c-0.03,0.03-0.05,0.06-0.07,0.09c-0.01,0.01-0.01,0.02-0.02,0.03
			c-0.02,0.03-0.04,0.06-0.05,0.09c-0.01,0.01-0.01,0.03-0.02,0.04c-0.01,0.03-0.02,0.06-0.03,0.09c-0.01,0.02-0.01,0.04-0.01,0.06
			c0,0.02-0.01,0.03-0.01,0.05l-0.86,10.44h-3.97v-3.71c0-0.02,0-0.03,0-0.05c0-0.03,0-0.05-0.01-0.08c0-0.02-0.01-0.05-0.02-0.07
			c-0.01-0.02-0.01-0.05-0.02-0.07c-0.01-0.03-0.02-0.05-0.04-0.08c-0.01-0.01-0.01-0.03-0.02-0.04c0-0.01-0.01-0.01-0.01-0.01
			c-0.01-0.02-0.03-0.04-0.05-0.07c-0.01-0.02-0.03-0.04-0.04-0.05c-0.02-0.02-0.03-0.03-0.05-0.05c-0.02-0.02-0.04-0.03-0.06-0.05
			c-0.02-0.01-0.04-0.02-0.05-0.03c-0.02-0.01-0.05-0.03-0.07-0.04c-0.02-0.01-0.04-0.01-0.06-0.02c-0.03-0.01-0.05-0.02-0.08-0.02
			c-0.02,0-0.04-0.01-0.06-0.01c-0.03,0-0.06-0.01-0.09-0.01c-0.01,0-0.01,0-0.02,0c-0.01,0-0.03,0-0.04,0c-0.03,0-0.06,0-0.09,0.01
			c-0.02,0-0.04,0.01-0.07,0.02c-0.02,0.01-0.05,0.01-0.07,0.02c-0.03,0.01-0.05,0.02-0.08,0.04c-0.01,0.01-0.03,0.01-0.04,0.02
			l-6.31,3.77v-3.14c0-0.02,0-0.03,0-0.05c0-0.03,0-0.05-0.01-0.08c0-0.02-0.01-0.05-0.02-0.07c-0.01-0.02-0.01-0.05-0.02-0.07
			c-0.01-0.03-0.02-0.05-0.04-0.08c-0.01-0.01-0.01-0.03-0.02-0.04c0-0.01-0.01-0.01-0.01-0.01c-0.02-0.02-0.03-0.05-0.05-0.07
			c-0.01-0.02-0.03-0.03-0.04-0.05c-0.02-0.02-0.04-0.03-0.05-0.05c-0.02-0.02-0.04-0.03-0.06-0.05c-0.02-0.01-0.04-0.02-0.06-0.03
			c-0.02-0.01-0.04-0.03-0.07-0.04c-0.02-0.01-0.04-0.01-0.06-0.02c-0.03-0.01-0.05-0.02-0.08-0.02c-0.02,0-0.04-0.01-0.06-0.01
			c-0.03,0-0.06-0.01-0.09-0.01c-0.01,0-0.01,0-0.02,0c-0.01,0-0.03,0-0.04,0c-0.03,0-0.06,0-0.09,0.01c-0.02,0-0.04,0.01-0.07,0.02
			c-0.02,0.01-0.05,0.01-0.07,0.02c-0.03,0.01-0.05,0.02-0.08,0.04c-0.01,0.01-0.03,0.01-0.04,0.02l-6.31,3.77V68.3H39.37z
			 M13.1,102.52c-0.95-0.33-1.97-1.12-1.97-2.35V83.85l5.94-3.56v3.14c0,0.02,0,0.03,0,0.05c0,0.03,0,0.05,0.01,0.08
			c0,0.02,0.01,0.05,0.02,0.07c0.01,0.02,0.01,0.05,0.02,0.07c0.01,0.03,0.02,0.05,0.04,0.08c0.01,0.01,0.01,0.03,0.02,0.04
			c0,0,0.01,0.01,0.01,0.01c0.03,0.05,0.07,0.1,0.11,0.14c0.01,0.01,0.02,0.01,0.02,0.02c0.04,0.03,0.07,0.06,0.11,0.08
			c0.01,0.01,0.03,0.02,0.05,0.02c0.04,0.02,0.08,0.03,0.12,0.05c0.01,0,0.03,0.01,0.04,0.01c0.06,0.01,0.11,0.02,0.17,0.02
			c0,0,0,0,0,0c0,0,0,0,0,0c0,0,0,0,0,0c0.06,0,0.12-0.01,0.17-0.02c0.02,0,0.03-0.01,0.05-0.01c0.05-0.01,0.09-0.03,0.13-0.06
			c0.01,0,0.02-0.01,0.02-0.01l6.31-3.77v3.14c0,0.41,0.33,0.74,0.74,0.74h5.4c0,0,0,0,0,0c0,0,0,0,0,0c0.05,0,0.1-0.01,0.14-0.01
			c0.02,0,0.03-0.01,0.05-0.01c0.03-0.01,0.06-0.02,0.09-0.03c0.02-0.01,0.04-0.02,0.06-0.03c0.02-0.01,0.05-0.02,0.07-0.04
			c0.02-0.01,0.03-0.03,0.05-0.04c0.02-0.02,0.04-0.03,0.06-0.05c0.01-0.01,0.03-0.03,0.04-0.04c0.02-0.02,0.03-0.04,0.05-0.06
			c0.01-0.02,0.02-0.03,0.03-0.05c0.01-0.02,0.03-0.05,0.04-0.07c0.01-0.02,0.01-0.04,0.02-0.06c0.01-0.03,0.02-0.05,0.02-0.08
			c0-0.02,0.01-0.04,0.01-0.06c0-0.02,0.01-0.03,0.01-0.05l0.86-10.44h0.86l0.86,10.44c0,0.02,0.01,0.03,0.01,0.05
			c0,0.02,0.01,0.04,0.01,0.06c0.01,0.03,0.01,0.05,0.02,0.08c0.01,0.02,0.01,0.04,0.02,0.06c0.01,0.02,0.02,0.05,0.04,0.07
			c0.01,0.02,0.02,0.03,0.03,0.05c0.02,0.02,0.03,0.04,0.05,0.06c0.01,0.02,0.03,0.03,0.04,0.04c0.02,0.02,0.04,0.03,0.06,0.05
			c0.02,0.01,0.03,0.03,0.05,0.04c0.02,0.01,0.05,0.03,0.07,0.04c0.02,0.01,0.04,0.02,0.06,0.03c0.03,0.01,0.06,0.02,0.09,0.03
			c0.02,0,0.03,0.01,0.05,0.01c0.05,0.01,0.1,0.01,0.14,0.01c0,0,0,0,0,0c0,0,0,0,0,0h4.66v26.4c-1.69-1.01-3.51-1.61-5.13-2.06
			L13.1,102.52z M69.09,68.3v31.87c0,1.23-1.02,2.02-1.93,2.33l-21.17,5.99c-1.62,0.46-3.44,1.05-5.13,2.06V68.3H69.09z
			 M29.29,66.82c0-0.18-0.07-0.37-0.22-0.51l-4-4c0.79-0.59,1.63-1.27,2.46-2.01c1.07,0.78,2.5,1.61,4.38,2.4
			c3.74,1.57,5.91,1.99,7.16,1.99c0.1,0,0.2,0,0.29-0.01v2.13H29.29z M39.37,42.41v20.79c-0.7,0.06-2.6-0.06-6.88-1.86
			c-1.64-0.69-2.9-1.4-3.85-2.07c2.03-1.99,3.86-4.29,4.63-6.48C35.26,47.12,37.71,44.2,39.37,42.41z M32.23,51.31
			c-0.12,0.32-0.24,0.65-0.36,0.98c-0.14,0.4-0.34,0.83-0.57,1.26c-1.53,1.05-2.66,1.32-4.45,1.74c0.05-0.13,0.08-0.27,0.1-0.41
			c0.08-0.52-0.07-1.2-0.43-1.78l3.71-2.32c0.35-0.22,0.45-0.68,0.23-1.02c-0.22-0.35-0.68-0.45-1.02-0.23l-4.11,2.57
			c-0.11-0.04-0.23-0.08-0.37-0.1v-0.35c2.22-2.16,3.18-5.34,3.57-7.21C28.99,45.15,30.01,46.95,32.23,51.31z M27.25,43.15
			c-0.16,1.03-0.71,3.92-2.29,6.19v-0.21l1.31-6.59C26.51,42.66,26.85,42.85,27.25,43.15z M27.67,39.2
			c-0.94,0.18-2.71,0.29-3.75-1.03c-0.25-0.32-0.72-0.38-1.04-0.13c-0.32,0.25-0.38,0.72-0.13,1.04c0.69,0.87,1.55,1.33,2.4,1.55
			c-0.01,0.04-0.03,0.07-0.03,0.11l-1.15,5.79l-2.31-5.9c0-0.01,0-0.01-0.01-0.02c-0.01-0.01-0.52-1.44,0.8-4.34
			c0.84-1.84,2.81-2.68,3.7-2.97c0.58,0.81,1.24,1.78,1.69,2.45l-0.7,0.9L27.67,39.2z M21.34,32.74c1.52-1.27,3.28-1.31,3.78-0.78
			c0.03,0.03,0.06,0.06,0.08,0.1c-1.22,0.48-3.16,1.53-4.11,3.6c-0.33,0.73-0.56,1.38-0.72,1.96
			C19.98,36.48,19.54,34.25,21.34,32.74z M11.15,49.99c0.04-0.05,3.89-5.4,5.46-6.97c0.29-0.29,0.64-0.51,1.02-0.69
			c0.56,1.96,2.26,6.81,5.84,8.93v0.95c-0.2,0.09-0.4,0.2-0.62,0.34c-1.01,0.67-2.26,1.51-1.69,3.09l0.12,0.25
			c0.27,0.57,0.82,1.74,2.15,1.76c0.01,0,0.02,0,0.03,0v3.87c-0.53,0.37-1.17,0.58-1.95,0.83c-1.69,0.55-3.79,1.24-6.02,4
			c-0.11,0.13-0.16,0.29-0.16,0.45h-1.08c1.32-5.4,4.08-10.95,4.11-11.01c0.01-0.01,0.01-0.03,0.01-0.04
			c0.01-0.02,0.02-0.05,0.03-0.07c0.01-0.02,0.01-0.05,0.02-0.07c0-0.02,0.01-0.05,0.01-0.07c0-0.03,0-0.05,0-0.08
			c0-0.02,0-0.04,0-0.06c0-0.03-0.01-0.06-0.01-0.09c0-0.01,0-0.02-0.01-0.03l-1.63-6.49c0-0.01-0.01-0.01-0.01-0.02
			c-0.01-0.03-0.02-0.06-0.03-0.09c-0.01-0.02-0.01-0.04-0.02-0.05c-0.01-0.02-0.03-0.05-0.04-0.07c-0.01-0.02-0.02-0.04-0.04-0.05
			c-0.01-0.02-0.03-0.04-0.05-0.05c-0.02-0.02-0.03-0.04-0.05-0.05c-0.01-0.01-0.01-0.01-0.02-0.02c-0.01-0.01-0.03-0.02-0.04-0.03
			c-0.02-0.01-0.04-0.03-0.06-0.04c-0.02-0.01-0.05-0.02-0.07-0.04c-0.02-0.01-0.04-0.01-0.05-0.02c-0.03-0.01-0.06-0.02-0.09-0.02
			c-0.02,0-0.04-0.01-0.05-0.01c-0.03,0-0.06-0.01-0.09-0.01c-0.02,0-0.03,0-0.05,0c-0.03,0-0.07,0.01-0.1,0.01
			c-0.01,0-0.02,0-0.03,0c-0.01,0-0.01,0-0.02,0.01c-0.03,0.01-0.06,0.02-0.09,0.03c-0.01,0.01-0.03,0.01-0.04,0.02
			c-0.03,0.01-0.05,0.03-0.08,0.05c-0.02,0.01-0.03,0.02-0.05,0.03c-0.02,0.02-0.04,0.03-0.06,0.05c-0.02,0.02-0.03,0.03-0.05,0.05
			c-0.01,0.01-0.01,0.01-0.02,0.02l-4.37,5.55v-4.08C11.14,50,11.14,50,11.15,49.99z"/>
		<path class="st0" d="M75.78,17.9H48.29c-0.41,0-0.74,0.33-0.74,0.74s0.33,0.74,0.74,0.74h26.75v80.79c0,3.72-2.59,6.78-6.89,8.18
			l-20.81,5.93c0,0,0,0-0.01,0c0,0,0,0-0.01,0c-4.04,1.24-6.21,2.94-7.21,3.95c-1.01-1.01-3.17-2.71-7.21-3.95c0,0,0,0-0.01,0
			c0,0,0,0-0.01,0l-20.78-5.92c-4.33-1.41-6.92-4.47-6.92-8.19V19.38h26.75c0.41,0,0.74-0.33,0.74-0.74s-0.33-0.74-0.74-0.74H4.44
			c-0.41,0-0.74,0.33-0.74,0.74v81.54c0,4.32,3.04,8,7.97,9.61l20.8,5.93c3.78,1.16,6.12,2.87,7.05,4.09c0,0.01,0.01,0.01,0.01,0.01
			c0.02,0.03,0.05,0.06,0.08,0.08c0.01,0.01,0.02,0.02,0.04,0.03c0,0,0.01,0.01,0.01,0.01c0.04,0.03,0.08,0.05,0.12,0.07
			c0.01,0.01,0.02,0.01,0.03,0.01c0.04,0.02,0.08,0.03,0.12,0.04c0.01,0,0.02,0.01,0.04,0.01c0.05,0.01,0.1,0.02,0.15,0.02
			c0,0,0,0,0,0s0,0,0,0c0.05,0,0.1-0.01,0.15-0.02c0.01,0,0.02-0.01,0.04-0.01c0.04-0.01,0.08-0.02,0.12-0.04
			c0.01,0,0.02-0.01,0.03-0.01c0.04-0.02,0.08-0.04,0.12-0.07c0,0,0.01-0.01,0.01-0.01c0.01-0.01,0.03-0.03,0.04-0.04
			c0.03-0.03,0.05-0.05,0.08-0.08c0-0.01,0.01-0.01,0.01-0.01c0.93-1.22,3.27-2.93,7.05-4.09l20.82-5.94c4.9-1.6,7.94-5.27,7.94-9.6
			V18.64C76.52,18.23,76.19,17.9,75.78,17.9z"/>
		<path class="st0" d="M28.36,10.01c-0.01,0.02-0.02,0.04-0.03,0.07c-0.01,0.02-0.02,0.05-0.02,0.07c-0.01,0.02-0.01,0.05-0.01,0.07
			c0,0.02-0.01,0.05-0.01,0.07c0,0.02,0,0.05,0,0.07c0,0.02,0,0.05,0,0.07c0,0.02,0.01,0.04,0.01,0.07
			c0.01,0.03,0.01,0.05,0.02,0.08c0,0.01,0,0.02,0.01,0.03c0.01,0.02,0.01,0.03,0.02,0.04c0.01,0.01,0.01,0.03,0.02,0.04
			c0.02,0.03,0.04,0.06,0.06,0.09c0.01,0.01,0.01,0.02,0.01,0.02c0.03,0.03,0.06,0.07,0.09,0.09c0.01,0.01,0.02,0.02,0.03,0.03
			c0.03,0.02,0.05,0.04,0.08,0.05c0.01,0,0.01,0.01,0.02,0.01c0,0,0.01,0,0.02,0.01c0.05,0.03,0.1,0.05,0.15,0.06
			c0.01,0,0.02,0,0.03,0.01c0.05,0.01,0.11,0.02,0.16,0.02c0,0,0,0,0,0c0,0,0,0,0,0c0,0,0,0,0,0c0.06,0,0.11-0.01,0.17-0.02
			c0.02,0,0.03-0.01,0.05-0.01c0.02,0,0.03-0.01,0.05-0.01l5.5-2.07c1.56,0.83,4.04,1.74,7.41,1.74c6.25,0,9.41-3.08,9.54-3.22
			c0.15-0.14,0.22-0.33,0.22-0.52c0-0.19-0.07-0.38-0.22-0.52c-0.13-0.13-3.3-3.21-9.54-3.21c-3.36,0-5.82,0.9-7.38,1.72L29.28,2.9
			c-0.01,0-0.02-0.01-0.03-0.01c-0.02-0.01-0.04-0.01-0.06-0.02c-0.03-0.01-0.05-0.01-0.08-0.01c-0.02,0-0.04,0-0.06,0
			c-0.03,0-0.06,0-0.08,0c-0.02,0-0.04,0.01-0.06,0.01c-0.03,0-0.05,0.01-0.08,0.02C28.8,2.89,28.78,2.9,28.76,2.9
			c-0.03,0.01-0.05,0.02-0.08,0.03c-0.01,0-0.02,0.01-0.02,0.01c-0.01,0.01-0.02,0.01-0.03,0.02C28.6,2.98,28.58,3,28.56,3.02
			c-0.02,0.01-0.03,0.03-0.05,0.04c-0.02,0.02-0.04,0.04-0.05,0.06c-0.02,0.02-0.03,0.04-0.04,0.05c-0.01,0.02-0.03,0.04-0.04,0.06
			c-0.01,0.02-0.02,0.04-0.03,0.07c-0.01,0.01-0.01,0.02-0.02,0.04c0,0.01,0,0.02-0.01,0.03c-0.01,0.02-0.01,0.05-0.02,0.07
			c-0.01,0.02-0.01,0.05-0.01,0.07c0,0.02,0,0.05,0,0.07c0,0.02,0,0.05,0,0.07c0,0.02,0.01,0.05,0.01,0.07
			c0,0.02,0.01,0.05,0.01,0.07c0.01,0.02,0.01,0.05,0.02,0.07c0.01,0.02,0.02,0.05,0.03,0.07c0,0.01,0.01,0.02,0.01,0.03l1.69,3.01
			l-1.69,3.01C28.36,9.99,28.36,10,28.36,10.01z M50.02,6.97c-1.14,0.81-3.76,2.26-7.83,2.26c-3.28,0-5.61-0.93-6.99-1.72
			c0,0,0,0,0,0c-0.04-0.02-0.08-0.04-0.12-0.06c-0.01,0-0.02-0.01-0.02-0.01c-0.03-0.01-0.07-0.02-0.1-0.02
			c-0.02,0-0.03-0.01-0.05-0.01c-0.03,0-0.05,0-0.08,0c-0.03,0-0.05,0-0.08,0c-0.02,0-0.03,0.01-0.05,0.01
			c-0.04,0.01-0.08,0.02-0.11,0.03c0,0-0.01,0-0.01,0l-3.92,1.47l1.1-1.96l-1.11-1.98l3.96,1.47c0.01,0,0.02,0.01,0.04,0.01
			c0.02,0.01,0.04,0.01,0.05,0.01c0.03,0.01,0.05,0.01,0.08,0.01c0.02,0,0.04,0,0.05,0c0.01,0,0.02,0,0.03,0c0.02,0,0.04,0,0.06,0
			c0.01,0,0.03,0,0.04,0c0.04-0.01,0.09-0.01,0.13-0.03c0.01,0,0.01,0,0.02-0.01c0.04-0.01,0.07-0.03,0.11-0.05
			c0,0,0.01,0,0.01-0.01c1.37-0.77,3.69-1.7,6.95-1.7C46.26,4.71,48.87,6.16,50.02,6.97z"/>
		<path class="st0" d="M31.13,93.27h-0.78c-0.06-0.4-0.15-0.8-0.3-1.17l0.67-0.38c0.36-0.2,0.48-0.66,0.27-1.01
			c-0.21-0.35-0.66-0.48-1.02-0.27l-0.68,0.39c-0.25-0.32-0.53-0.6-0.85-0.85l0.39-0.68c0.21-0.35,0.08-0.81-0.27-1.01
			c-0.36-0.21-0.81-0.08-1.02,0.27l-0.38,0.66c-0.37-0.15-0.76-0.24-1.17-0.3v-0.78c0-0.41-0.33-0.74-0.74-0.74
			s-0.74,0.33-0.74,0.74v0.78c-0.41,0.06-0.8,0.15-1.17,0.3l-0.38-0.66c-0.21-0.35-0.66-0.48-1.02-0.27
			c-0.36,0.2-0.48,0.66-0.27,1.01l0.39,0.68c-0.32,0.25-0.6,0.53-0.85,0.85l-0.68-0.39c-0.36-0.21-0.81-0.08-1.02,0.27
			c-0.21,0.35-0.08,0.81,0.27,1.01l0.67,0.38c-0.15,0.37-0.24,0.76-0.3,1.17h-0.78c-0.41,0-0.74,0.33-0.74,0.74s0.33,0.74,0.74,0.74
			h0.78c0.06,0.41,0.15,0.8,0.3,1.17l-0.67,0.38c-0.36,0.2-0.48,0.66-0.27,1.01c0.14,0.24,0.39,0.37,0.64,0.37
			c0.13,0,0.25-0.03,0.37-0.1l0.68-0.39c0.25,0.32,0.53,0.6,0.85,0.85l-0.39,0.68c-0.21,0.35-0.08,0.81,0.27,1.01
			c0.12,0.07,0.24,0.1,0.37,0.1c0.26,0,0.51-0.13,0.64-0.37l0.38-0.66c0.37,0.15,0.76,0.24,1.17,0.3v0.78
			c0,0.41,0.33,0.74,0.74,0.74s0.74-0.33,0.74-0.74V99.1c0.41-0.06,0.8-0.15,1.17-0.3l0.38,0.66c0.14,0.24,0.39,0.37,0.64,0.37
			c0.13,0,0.25-0.03,0.37-0.1c0.36-0.2,0.48-0.66,0.27-1.01l-0.39-0.68c0.32-0.25,0.6-0.53,0.85-0.85l0.68,0.39
			c0.12,0.07,0.24,0.1,0.37,0.1c0.26,0,0.51-0.13,0.64-0.37c0.21-0.35,0.08-0.81-0.27-1.01l-0.67-0.38c0.15-0.37,0.24-0.76,0.3-1.17
			h0.78c0.41,0,0.74-0.33,0.74-0.74S31.54,93.27,31.13,93.27z M25.25,97.69c-2.03,0-3.69-1.65-3.69-3.68c0-2.03,1.65-3.68,3.69-3.68
			s3.69,1.65,3.69,3.68C28.94,96.04,27.28,97.69,25.25,97.69z"/>
	</g>
</g>
</svg>
